<?xml version="1.0" encoding="utf-8"?>
<!-- Generated by IcoMoon.io -->
<!DOCTYPE svg PUBLIC "-//W3C//DTD SVG 1.1//EN" "http://www.w3.org/Graphics/SVG/1.1/DTD/svg11.dtd">
<svg version="1.1" xmlns="http://www.w3.org/2000/svg" xmlns:xlink="http://www.w3.org/1999/xlink" width="512" height="512" viewBox="0 0 512 512"><g id="icomoon-ignore">
</g>
<path d="M214.911-188.153c1.811 1.144-1.621 1.811-16.111 2.955-6.577 0.573-14.302 1.334-17.16 1.811s-9.725 1.621-15.255 2.575c-22.309 3.528-56.725 13.252-76.744 21.642-3.623 1.524-8.582 3.528-10.963 4.386-8.008 3.147-30.889 14.682-41.090 20.784-5.625 3.337-10.487 6.007-10.868 6.007s-2.002 1.144-3.719 2.478c-1.622 1.335-6.007 4.481-9.725 6.864-9.63 6.388-19.925 13.728-26.503 19.067-9.153 7.341-29.936 26.504-36.133 33.368-3.147 3.528-8.008 8.581-10.678 11.346-2.67 2.67-8.294 9.154-12.394 14.301-4.195 5.148-8.771 10.678-10.201 12.203-4.863 5.34-16.494 22.595-28.219 41.947-7.341 12.203-20.212 36.703-20.212 38.611 0 0.477-0.858 2.477-1.811 4.481-2.192 4.386-5.911 12.774-8.008 17.922-0.763 2.097-2.766 7.15-4.386 11.154s-2.955 8.008-2.955 8.771c0 0.763-0.573 2.861-1.334 4.576-1.334 2.861-4.958 14.778-8.484 27.457-0.763 2.861-2.192 8.675-3.051 12.87-0.953 4.195-2.288 9.819-2.955 12.584-0.763 2.67-1.334 6.197-1.334 7.913s-0.573 5.911-1.334 9.438c-3.147 14.395-6.292 50.338-6.292 71.597s3.147 57.202 6.292 71.596c0.763 3.527 1.334 7.721 1.334 9.438s0.573 5.243 1.334 7.913c0.667 2.765 2.001 8.389 2.955 12.584 0.858 4.195 2.288 10.010 3.051 12.87 3.528 12.68 7.149 24.596 8.484 27.457 0.763 1.717 1.334 3.813 1.334 4.575s1.334 4.767 2.955 8.771c1.621 4.005 3.623 9.058 4.386 11.154 2.097 5.149 5.816 13.536 8.008 17.923 0.953 2.002 1.811 4.005 1.811 4.481 0 1.908 12.87 26.408 20.213 38.611 11.535 18.971 23.93 37.563 28.505 42.423 1.24 1.334 5.719 6.672 9.819 11.821 4.195 5.053 9.819 11.535 12.489 14.206 2.67 2.765 7.531 7.817 10.678 11.346 5.53 6.197 25.55 24.787 35.179 32.701 5.434 4.576 17.827 13.347 27.457 19.735 3.719 2.383 8.104 5.53 9.725 6.864 1.717 1.335 3.337 2.477 3.719 2.477s5.243 2.67 10.868 6.007c10.392 6.197 33.462 17.827 41.090 20.784 2.383 0.858 7.341 2.861 10.963 4.385 20.019 8.389 54.437 18.114 76.744 21.642 5.53 0.953 12.394 2.097 15.255 2.574 27.172 4.576 119.647 4.576 146.818 0 2.861-0.476 9.724-1.621 15.255-2.574 10.962-1.717 40.518-8.771 49.289-11.726 13.347-4.481 29.839-10.582 33.462-12.394 2.192-1.144 4.385-2.001 4.863-2.001 1.812 0 33.082-15.635 42.139-21.165 5.053-3.051 9.534-5.53 9.914-5.53s2.002-1.144 3.719-2.477c1.622-1.335 6.007-4.481 9.724-6.864 9.63-6.388 19.926-13.729 26.504-19.067 9.154-7.341 29.936-26.504 36.133-33.368 3.146-3.528 8.008-8.582 10.678-11.346 2.67-2.67 8.294-9.154 12.394-14.302 4.195-5.149 8.675-10.487 10.010-11.916 4.385-4.671 16.779-23.166 28.409-42.233 7.341-12.204 20.212-36.704 20.212-38.611 0-0.476 0.858-2.478 1.812-4.481 2.192-4.385 5.911-12.774 8.008-17.923 0.763-2.098 2.765-7.149 4.385-11.154s2.955-8.008 2.955-8.771c0-0.763 0.573-2.861 1.335-4.575 1.335-2.861 4.958-14.778 8.485-27.457 0.763-2.861 2.192-8.675 3.051-12.87 0.953-4.195 2.288-9.819 2.955-12.584 0.763-2.67 1.335-6.197 1.335-7.817s0.573-6.007 1.335-9.819c2.001-9.914 4.195-28.125 4.863-40.232 0.667-10.962 1.144-13.252 2.477-12.394 0.476 0.286 0.858-7.626 0.858-18.686s-0.381-18.971-0.858-18.686c-1.335 0.858-1.812-1.43-2.477-12.394-0.667-11.536-2.765-29.363-4.863-40.709-0.763-4.006-1.335-8.484-1.335-9.725 0-1.334-0.667-4.863-1.43-7.913-0.763-2.955-2.288-9.343-3.337-14.014-3.909-17.255-8.008-31.461-11.059-38.421-0.763-1.717-1.335-3.814-1.335-4.576s-1.335-4.767-2.955-8.771c-1.621-4.005-3.623-9.058-4.385-11.154-2.097-5.148-5.816-13.537-8.008-17.922-0.953-2.002-1.812-4.005-1.812-4.481 0-1.907-12.87-26.408-20.212-38.611-12.203-20.212-22.213-34.987-29.078-42.998-2.192-2.575-6.577-7.913-9.819-11.822-3.146-3.909-8.294-9.724-11.346-12.87-2.955-3.147-8.008-8.581-11.25-12.108-6.197-6.96-26.981-26.121-36.133-33.368-6.577-5.34-16.875-12.68-26.503-19.067-3.719-2.383-8.104-5.53-9.724-6.864-1.717-1.335-3.337-2.478-3.719-2.478s-4.863-2.478-9.914-5.53c-9.248-5.53-35.846-18.971-42.616-21.546-2.098-0.763-6.673-2.575-10.392-4.099-19.831-8.294-54.437-18.114-76.744-21.642-5.53-0.953-12.394-2.097-15.255-2.575s-10.773-1.239-17.638-1.811c-14.206-1.144-16.969-1.621-16.206-2.861 0.381-0.573-5.053-0.953-14.778-0.953-10.010 0-15.158 0.286-14.778 0.953 0.954 1.621-3.527 2.575-9.058 2.001-3.431-0.381-5.149-1.048-4.958-1.811 0.096-0.858-4.195-1.144-18.591-1.144-11.154 0-18.304 0.381-17.542 0.858zM318.159-174.712c9.534 1.144 17.638 2.192 18.114 2.477 0.381 0.286 3.813 0.858 7.626 1.334s8.865 1.334 11.25 2.001c2.383 0.573 6.864 1.717 10.010 2.477 5.625 1.334 11.346 2.861 21.45 5.72 10.868 3.051 27.933 9.248 37.848 13.824 3.241 1.43 6.293 2.67 6.769 2.67s4.385 1.717 8.675 3.814c4.195 2.097 8.008 3.814 8.294 3.814 0.381 0 2.861 1.43 5.53 3.241 2.67 1.717 7.626 4.576 11.059 6.293s7.245 3.909 8.582 4.958c1.334 1.049 3.719 2.478 5.243 3.241 1.622 0.763 5.911 3.528 9.534 6.101 3.719 2.575 8.962 6.197 11.631 8.105 2.765 1.811 8.294 6.007 12.204 9.248 4.006 3.337 9.534 7.722 12.204 9.725 6.293 4.767 44.427 42.806 47.477 47.383 1.24 1.907 4.576 6.197 7.245 9.534 6.769 8.199 18.114 23.834 22.69 31.174 29.553 47.096 46.239 86.469 57.774 136.999 4.768 20.592 5.625 25.838 8.105 47.668 3.813 34.606 4.005 70.93 0.381 100.103-2.288 18.877-2.861 22.404-4.195 29.553-4.098 21.736-9.154 41.185-16.303 62.922-1.717 5.053-12.394 32.985-13.537 35.37-0.476 0.954-1.717 3.337-2.67 5.149-0.858 1.812-2.383 4.863-3.337 6.673s-2.955 5.911-4.385 9.058c-1.43 3.147-3.719 7.437-5.053 9.534-1.43 2.098-3.719 6.101-5.149 8.771-4.098 7.721-14.967 24.884-19.735 31.175-2.383 3.147-6.101 8.199-8.294 11.346-12.298 17.638-44.999 51.863-65.592 68.641-12.012 9.819-49.48 35.942-51.577 35.942-0.19 0-6.101 3.241-13.061 7.149-6.864 4.005-15.826 8.389-19.735 10.010-3.909 1.524-9.248 3.813-11.916 5.053-2.575 1.24-7.721 3.337-11.44 4.481-3.623 1.24-7.055 2.574-7.626 2.861-1.334 1.048-17.447 6.007-29.078 9.058-3.432 0.858-8.295 2.192-10.868 2.955-2.478 0.763-5.434 1.335-6.483 1.335s-4.099 0.573-6.769 1.335c-5.911 1.524-20.878 3.719-39.755 5.816-11.346 1.24-22.404 1.524-61.969 1.144-30.031-0.191-51.386-0.763-56.725-1.524-17.922-2.383-34.225-5.243-44.809-7.913-2.097-0.476-5.53-1.24-7.626-1.717s-6.769-1.717-10.487-2.861c-3.623-1.048-8.389-2.383-10.487-2.955-4.29-1.048-11.916-3.719-13.347-4.671-0.477-0.381-3.909-1.621-7.626-2.861-3.623-1.144-9.058-3.337-12.108-4.768-2.955-1.524-6.388-2.955-7.626-3.337-4.576-1.524-14.968-6.577-25.264-12.49-5.816-3.337-10.868-6.101-11.154-6.101-1.907 0-38.23-24.978-45.952-31.65-3.146-2.67-7.341-6.007-9.438-7.626-13.347-9.819-50.528-49.099-61.778-65.4-2.192-3.147-5.911-8.199-8.294-11.25-4.29-5.53-21.927-33.749-21.927-35.082 0-0.381-1.24-2.478-2.67-4.671-1.525-2.192-3.909-6.577-5.34-9.724s-3.431-7.245-4.385-9.058c-0.954-1.812-2.288-4.671-3.147-6.197-4.29-8.485-13.536-32.033-16.97-43.378-1.048-3.432-2.383-7.245-2.861-8.485-3.814-9.248-14.206-55.105-15.541-68.738-0.381-2.861-1.334-11.44-2.192-19.067-2.477-21.45-2.192-66.258 0.476-91.046 2.288-20.115 3.337-26.504 7.913-47.192 4.863-21.737 10.869-42.233 17.256-58.632 2.001-5.243 4.576-11.916 5.719-14.778 7.246-18.971 31.461-62.635 43.187-78.177 2.192-2.861 5.816-7.817 8.008-10.962 12.68-18.209 47.383-55.010 63.208-66.926 1.908-1.43 6.577-5.243 10.392-8.389 6.577-5.434 9.725-7.722 22.404-16.111 15.158-10.106 21.451-14.014 27.552-17.066 3.719-1.907 8.105-4.482 9.915-5.816s3.719-2.477 4.099-2.477c0.477 0 4.29-1.717 8.484-3.814 4.29-2.097 8.199-3.814 8.675-3.814s3.528-1.239 6.769-2.67c15.73-7.245 36.037-13.919 59.3-19.543 3.147-0.763 7.913-2.001 10.487-2.575 2.67-0.667 7.341-1.524 10.487-1.907s6.864-1.048 8.294-1.43c1.43-0.381 9.154-1.43 17.16-2.383 12.012-1.334 23.072-1.717 62.063-1.811 41.947-0.096 49.383 0.096 64.733 1.811z"></path>
<path d="M18.899 30.451c-0.573 0.666-1.239 5.052-1.622 9.819-1.049 12.965-1.049 53.199 0 55.009 0.477 0.858 4.195 3.909 8.199 6.672 15.255 10.487 21.832 15.158 28.125 19.925 3.527 2.67 8.105 5.816 10.201 6.864 2.001 1.144 4.576 2.67 5.719 3.337 1.049 0.667 4.385 2.67 7.341 4.29 2.955 1.717 8.484 5.149 12.394 7.721s8.962 5.72 11.347 7.055c2.383 1.239 5.148 3.051 6.197 3.909 2.575 2.288 17.352 10.296 27.648 14.968 3.147 1.43 6.769 3.431 8.105 4.386s5.625 3.051 9.534 4.671c3.909 1.524 8.008 3.719 9.154 4.768 1.048 0.953 4.768 2.766 8.199 4.006s6.864 2.67 7.626 3.241c1.621 1.43 8.389 4.386 18.209 8.008 10.392 3.814 13.252 2.001 9.819-6.101-1.717-4.006-5.625-7.817-10.773-10.392-2.288-1.144-7.531-5.53-11.536-9.63-4.006-4.195-8.582-8.294-10.011-9.248-1.524-0.953-5.243-4.006-8.199-6.96-3.051-2.861-6.483-5.72-7.626-6.387-3.719-1.907-21.546-17.733-26.408-23.263-2.575-2.955-6.197-6.293-8.008-7.436s-5.148-3.814-7.341-5.816c-2.097-2.097-4.767-4.195-5.816-4.863-6.007-3.337-15.826-12.297-35.465-32.319-12.108-12.297-25.264-24.883-29.27-27.933-7.626-5.816-10.868-8.865-16.59-15.445-3.527-4.099-7.245-5.243-9.154-2.861z"></path>
<path d="M482.041 33.312c-5.434 6.388-8.771 9.438-16.399 15.349-4.005 2.955-16.969 15.349-28.983 27.457-18.971 19.257-34.416 33.272-36.514 33.272-0.381 0-2.67 1.811-4.958 4.005-2.383 2.288-6.007 5.243-8.104 6.672s-5.719 4.767-8.008 7.436c-4.289 5.149-22.308 20.974-25.931 22.881-1.144 0.667-4.575 3.528-7.626 6.387-2.955 2.955-6.673 6.007-8.199 6.96-1.43 0.953-5.816 4.958-9.724 8.962-3.813 4.006-9.248 8.582-12.108 10.106-6.197 3.623-10.582 8.484-11.346 12.774-0.858 4.099-0.096 5.339 3.051 5.339 3.719 0 22.786-7.245 25.837-9.819 0.763-0.573 4.195-2.001 7.626-3.241s7.149-3.051 8.199-4.006c1.144-1.048 5.243-3.241 9.154-4.768 3.909-1.621 8.199-3.719 9.534-4.671s4.958-2.955 8.104-4.386c10.296-4.671 25.074-12.679 27.649-14.968 1.048-0.858 3.813-2.67 6.197-3.909s8.675-5.149 14.014-8.675c5.434-3.528 10.773-6.864 11.916-7.341 1.24-0.573 3.527-1.811 5.053-2.861 1.622-1.048 4.385-2.67 6.197-3.719 1.812-0.954 6.293-4.005 9.819-6.672 6.293-4.767 12.87-9.438 28.125-19.925 4.005-2.766 7.721-5.816 8.199-6.672 1.048-1.811 1.048-42.043 0-55.010-0.381-4.767-1.048-9.154-1.622-9.819-1.908-2.383-5.625-1.239-9.154 2.861z"></path>
<path d="M85.443 229.227c-1.717 1.524-2.002 2.861-2.192 13.061l-0.285 11.346 2.766 2.001c1.525 1.144 4.958 3.814 7.626 6.101 7.436 6.293 17.922 13.156 22.118 14.491 2.001 0.666 6.483 2.67 9.819 4.575 5.719 3.051 7.056 3.432 18.496 4.289 15.063 1.24 23.548 0.096 27.076-3.432 2.288-2.192 4.006-7.437 4.099-11.822 0-4.767-12.679-14.585-18.877-14.585-1.334 0-5.243-1.811-8.771-4.099-10.678-6.864-16.206-9.725-23.834-12.297-2.383-0.858-8.962-3.528-14.778-5.911-12.204-5.149-19.925-6.387-23.263-3.719z"></path>
<path d="M402.149 232.564c-5.911 2.383-11.346 4.863-12.012 5.339-0.666 0.573-2.861 1.239-4.958 1.717-4.767 0.858-10.201 3.623-22.404 11.536-3.527 2.288-7.341 4.099-8.582 4.099-3.623 0-12.108 4.767-15.826 8.771-3.432 3.813-3.719 5.53-2.288 11.631 2.002 8.771 9.534 11.154 30.127 9.438 11.726-0.954 12.68-1.144 19.449-4.767 3.909-2.192 8.294-4.195 9.724-4.481 3.051-0.666 14.206-8.104 21.354-14.109 2.67-2.288 6.101-4.958 7.626-6.101l2.765-2.001-0.286-11.346c-0.381-13.536-0.763-14.206-8.485-14.206-4.195 0-7.721 0.953-16.206 4.482z"></path>
<path d="M159.139 443.447c-3.814 1.717-4.195 2.861-4.195 13.347 0 7.531 0.286 9.058 1.907 10.582 1.717 1.524 7.436 1.622 98.196 1.622 91.046 0 96.48-0.096 98.197-1.622 1.622-1.524 1.908-2.955 1.908-10.678 0-10.201-0.666-12.012-4.863-13.536-4.863-1.717-187.24-1.43-191.149 0.286z"></path>
</svg>
